<svg xmlns="http://www.w3.org/2000/svg" version="1.1" xmlns:xlink="http://www.w3.org/1999/xlink" xmlns:svgjs="http://svgjs.dev/svgjs" width="100%" height="100%" viewBox="0 0 1000 600"><rect width="1000" height="600" x="0" y="0" fill="#3b5998"/><g><rect width="333.3333333333333" height="333.3333333333333" rx="13.333333333333334" ry="13.333333333333334" y="160.24921925699712" fill="&#9;#f7f7f7" transform="matrix(0.9056197953393597,0,0,0.9056197953393597,0,3.938478941221547)" x="138.0269775390625"/><path d="M359.0010506210964 309.8950124076998L359.0010506210964 309.8950124076998Q359.0010506210964 319.3162646432246 357.2648077619816 329.8760367863657Q355.5285649028667 340.4358089295067 351.94222719387545 350.6824880980532Q348.35588948488413 360.92916726659985 343.033308916778 370.1511785182918Q337.6822653509815 379.3731897699837 330.42420093992763 386.4320131972046Q323.1376735311834 393.519299622116 313.9156622794915 397.7033602826059Q304.6936510277996 401.9158839407861 293.6215449262312 401.9158839407861L293.6215449262312 401.9158839407861Q283.3748657576847 401.9158839407861 275.917560362798 395.8817284304198Q268.4317919702209 389.81910992236305 263.82078634437494 379.9993757191726Q259.20978071852903 370.1511785182918 257.47353785941414 357.45668154837017Q255.70883200260891 344.73372158075813 256.96120390098685 331.6122796454805Q258.18511280167434 318.5193007078932 262.16993247833136 305.79634074028127Q266.1832151526787 293.10184377035966 273.12818658913807 283.25364656947875Q280.10162102328786 273.4339123662883 289.94981822416867 267.3712938582316Q299.76955242735914 261.3371383478653 312.4925123949712 261.3371383478653L312.4925123949712 261.3371383478653Q322.53995057968484 261.3371383478653 329.28568103231135 265.8342919829496Q336.0598744826283 270.35990861572435 340.2439351431181 277.30488005218365Q344.45645880129837 284.27831448633344 346.30655365117485 292.78875079576517Q348.1566485010513 301.2991871051969 348.1566485010513 309.29728945620127L348.1566485010513 309.29728945620127Q348.1566485010513 318.9177826755589 346.5057946350077 328.0259419364892Q344.85494076896407 337.1625641951099 340.7562691015454 345.7583894976128L340.7562691015454 345.7583894976128Q339.5323602008579 348.63315226434395 339.4469712077867 347.7223363382509Q339.33311921702506 346.7830574144675 339.73160118469076 344.9329625645911L339.73160118469076 344.9329625645911Q341.18321406690154 337.5610461627756 342.29327097682744 330.30298175172175Q343.4317908844437 323.01645434297757 343.4317908844437 315.4452969573292L343.4317908844437 315.4452969573292Q343.4317908844437 308.2726215393467 342.0086409999234 299.84757422298617Q340.55702811771255 291.450989904316 337.0845423994829 284.27831448633344Q333.58359368356287 277.1056390683508 327.4355861824349 272.29539245867204Q321.28757868130697 267.4851458489932 311.8663264457822 267.4851458489932L311.8663264457822 267.4851458489932Q303.8682240947778 267.4851458489932 296.92325265831846 270.5591495995572Q289.94981822416867 273.6331533501212 284.31414468146806 278.75649293439443Q278.67847113876746 283.87983251866774 274.380558487516 290.7394149620559Q270.0541828385741 297.5989974054439 266.9801790880101 304.9709138072594L266.9801790880101 304.9709138072594Q264.53236128663514 311.11892130838737 262.8815074205915 320.45478455084094Q261.2591165522383 329.7906477932944 261.05987556840546 340.037326961841Q260.83217158688217 350.2840061303875 262.28378446909295 360.729926282767Q263.7069343536133 371.17584643514647 267.6063650371991 379.3731897699837Q271.5057957207849 387.5705331048209 277.8530442057457 392.8077246798558Q284.2002926907065 398.0164532572003 293.8492489077545 398.0164532572003L293.8492489077545 398.0164532572003Q303.8682240947778 398.0164532572003 312.8909943626369 392.3807797144997Q321.9137646304959 386.7451061717991 329.20029203924014 378.23466986236735Q336.458356450294 369.75269655062607 341.58169603456724 360.0183513405068Q346.70503561884055 350.2840061303875 348.9536124363827 341.8589588140271L348.9536124363827 341.8589588140271Q351.002948270092 334.4870424122116 352.1414681777083 325.37888315128134Q353.2799880853246 316.2422608926606 352.76765412689724 306.9348606478975Q352.2553201684699 297.5989974054439 349.8928913601661 288.80393111910814Q347.53046255186234 279.9804018350819 342.8056049352548 273.12081939169383Q338.10921031633757 266.26123694830574 330.82268290759333 262.0487132901254Q323.56461849653954 257.8361896319452 313.09023534646974 257.8361896319452L313.09023534646974 257.8361896319452Q297.520975609817 257.8361896319452 286.2496285244158 265.63505099911674Q274.97828143901455 273.4339123662883 267.72021702796076 285.30298240318814Q260.4336896192165 297.2005154377782 256.96120390098685 311.5458662737435Q253.46025518506676 325.8912171097087 253.46025518506676 339.0126590449863L253.46025518506676 339.0126590449863Q253.46025518506676 345.16066654611427 254.28568211808857 351.3940630403134Q255.11110905111036 357.655922532203 255.50959101877606 361.7545941996217L255.50959101877606 361.7545941996217Q255.70883200260891 363.37698506797483 255.1964980441816 363.4908370587365Q254.68416408575428 363.6046890494981 254.08644113425572 361.95383518345454L254.08644113425572 361.95383518345454Q253.2610142012339 359.27831340055627 252.63482825204494 355.69197569156495Q252.0371053005464 352.1056379825736 251.52477134211907 348.1208183059166Q251.01243738369175 344.1359986292597 250.69934440909725 340.1227159549122Q250.38625143450278 336.1378962782552 250.38625143450278 332.6369475623352L250.38625143450278 332.6369475623352Q250.38625143450278 318.2915967263699 254.17183012732693 303.8608568973335Q257.9858718178415 289.4016540706067 265.7562701873226 277.93106600137264Q273.5551315544942 266.4604779321386 285.5380535821556 259.17395052339435Q297.520975609817 251.9158861123405 313.9156622794915 251.9158861123405L313.9156622794915 251.9158861123405Q326.21167728174737 251.9158861123405 334.83596558194074 257.4377076642795Q343.4317908844437 262.95952921621847 348.8682234433115 271.4699655256502Q354.30465600217923 279.9804018350819 356.6386218127926 290.22708100362854Q359.0010506210964 300.47376017217505 359.0010506210964 309.8950124076998ZM339.73160118469076 311.74510725757636L339.73160118469076 311.74510725757636Q339.73160118469076 320.5686365416026 337.6822653509815 330.30298175172175Q335.63292951727215 340.037326961841 331.6481098406152 349.34472720660415Q327.66329016395815 358.6805904490577 321.9137646304959 366.7640817931333Q316.16423909703366 374.8760361348993 308.7923226952182 380.59709867067113L308.7923226952182 380.59709867067113Q305.31983697698854 383.2726204535694 301.3065543026412 385.12271530344594Q297.32173462598416 386.94434715563193 292.59687700937656 386.94434715563193L292.59687700937656 386.94434715563193Q288.49820534195794 386.94434715563193 285.73729456598846 385.20810429651715Q282.976383790019 383.47186143740225 280.92704795630965 380.3978576868383L280.92704795630965 380.3978576868383Q279.276194090266 378.14928086929615 279.902380039455 378.14928086929615Q280.52856598864395 378.14928086929615 282.15095685699714 379.7716717376494L282.15095685699714 379.7716717376494Q284.0010517068736 381.422525603693 285.8511465567501 382.6464345043805Q287.70124140662654 383.87034340506796 290.7752451571905 383.87034340506796L290.7752451571905 383.87034340506796Q296.4963076929623 383.87034340506796 301.7334992679973 379.88552372841104Q306.9422278453418 375.900704051754 310.44317656126185 371.80203238433535L310.44317656126185 371.80203238433535Q315.76575712936796 366.0525068508731 319.86442879678657 358.9936834236522Q323.96310046420524 351.9063969987408 326.7240112401747 344.2213876223309Q329.4849220161442 336.5363782459209 330.936534898355 328.65212788567817Q332.3596847828753 320.7678775254353 332.3596847828753 312.9690161582638L332.3596847828753 312.9690161582638Q332.3596847828753 307.84567657399054 331.4488688567823 301.6976690728626Q330.5095899329989 295.54966157173465 327.9479201408622 290.1132290128669Q325.3862503487256 284.7052594516896 321.0029487044029 281.0050697519366Q316.59118406238974 277.30488005218365 309.61774962824006 277.30488005218365L309.61774962824006 277.30488005218365Q302.0465922425917 277.30488005218365 296.0978257252966 280.6065877842709Q290.1490592080015 283.87983251866774 285.42420159139397 288.88932011217935Q280.7278069724768 293.9272707033815 276.9422282796527 300.16066719758066Q273.12818658913807 306.42252668947015 269.85494185474124 312.37129320676524L269.85494185474124 312.37129320676524Q269.2572189032427 313.5952021074528 268.94412592864825 313.79444309128564Q268.63103295405375 313.9936840751185 268.63103295405375 313.5952021074528L268.63103295405375 313.5952021074528Q268.4317919702209 313.16825714209665 268.63103295405375 312.37129320676524L268.63103295405375 312.37129320676524Q270.87960977159594 304.77167282342657 274.7790404551817 297.3997564216111Q278.67847113876746 290.0278400197957 284.1149036976352 284.27831448633344Q289.5228732588126 278.55725195056164 296.29706670912947 274.9709142415703Q303.0712601594464 271.384576532579 311.0408995127604 271.384576532579L311.0408995127604 271.384576532579Q318.6405198960991 271.384576532579 324.1623414480381 275.48324819999766Q329.7126259976675 279.5819198674163 333.0712597251355 285.6160753777825Q336.458356450294 291.6502308881488 338.10921031633757 298.73751731306027Q339.73160118469076 305.79634074028127 339.73160118469076 311.74510725757636ZM302.64431519409027 391.86844575607245L302.64431519409027 391.86844575607245Q297.9479205751731 394.34472655513787 292.59687700937656 394.34472655513787L292.59687700937656 394.34472655513787Q285.2249606075611 394.34472655513787 279.902380039455 390.2460548877192Q274.57979947134885 386.1473832203005 270.9934617623576 380.1986167030054Q267.40712405336626 374.24985018571044 265.7562701873226 367.27641575156065Q264.13387931896943 360.30298131741085 264.13387931896943 354.3826777978062L264.13387931896943 354.3826777978062Q264.13387931896943 353.1303058994283 264.3331203028023 350.6824880980532Q264.53236128663514 348.23467029667825 264.84545426122963 345.87224148837447Q265.1585472358241 343.5098126800707 265.6708811942514 341.65971783019427Q266.1832151526787 339.8096229803177 266.9801790880101 339.8096229803177L266.9801790880101 339.8096229803177Q267.80560602103196 339.8096229803177 267.72021702796076 342.99747872164335Q267.6063650371991 346.18533446296897 268.0048470048648 351.9063969987408L268.0048470048648 351.9063969987408Q268.23255098638805 356.4320136315155 269.85494185474124 363.177744084142Q271.5057957207849 369.9519375344589 274.57979947134885 376.1853340286581Q277.6538032219128 382.44719352054767 282.15095685699714 386.94434715563193Q286.67657348977184 391.46996378840674 292.59687700937656 391.46996378840674L292.59687700937656 391.46996378840674Q297.72021659364987 391.46996378840674 301.8188882610685 390.6445368553849L301.8188882610685 390.6445368553849Q303.8682240947778 390.2460548877192 304.89289201163245 390.2460548877192Q305.9175599284871 390.2460548877192 302.64431519409027 391.86844575607245Z " fill="&#9;#3b5998" transform="matrix(0.9056197953393597,0,0,0.9056197953393597,0,3.938478941221547)"/><path d="M654.6885087853701 298.20616284362575L654.6885087853701 298.20616284362575Q655.6607665814475 306.5513755932892 654.2023798873315 313.27615868282396Q652.7439931932155 319.9739346113565 651.177577855091 324.457123337713L651.177577855091 324.457123337713Q647.882704212829 332.9913862143916 642.2382075633802 340.0942695579564Q636.5937109139313 347.1971529015211 629.8959349853988 352.43654213593777Q623.1981590568662 357.7029385313565 615.9872470692928 361.1868623006335Q608.8033422427217 364.6977932309127 602.5646880512256 366.04815128102007L602.5646880512256 366.04815128102007Q601.0252798741033 366.4532586960522 599.3778430529721 366.75033746707584Q597.703399070839 367.0204090770974 597.9194563588562 366.6423088230673L597.9194563588562 366.6423088230673Q597.514348943824 366.26420856903724 599.0807642819486 365.481000899975Q600.620172459071 364.6977932309127 601.9975376701805 364.10363568886544L601.9975376701805 364.10363568886544Q612.8814235540459 358.8642464544488 622.414951387804 351.6803416278776Q631.948479221562 344.46942964030427 638.7542837941032 334.36875142550116L638.7542837941032 334.36875142550116Q642.0491574363651 329.5074624451146 644.587830570567 323.56588702464217Q647.0994965437667 317.6513187651718 648.0717543398441 311.2236144466608Q649.0440121359213 304.79591012814967 648.0717543398441 298.0981341996171Q647.0994965437667 291.40035827108454 643.6155727744897 284.9726539525734L643.6155727744897 284.9726539525734Q639.1323840481332 276.81649132992493 632.1375293485771 271.65812357851473Q625.1426746490208 266.49975582710465 616.7704547383552 263.8800612098963Q608.3982348276895 261.260366592688 599.5668931799872 260.7742376946494Q590.7085443712829 260.2881087966107 582.5523817486344 261.6384668467181L582.5523817486344 261.6384668467181Q581.391073825542 261.82751697373317 581.1750165375248 261.82751697373317Q580.9859664105098 261.82751697373317 580.6078661564798 261.6384668467181L580.6078661564798 261.6384668467181Q580.6078661564798 261.260366592688 581.2830451815335 261.04430930467083Q581.9582242065871 260.8552591776558 582.5523817486344 260.4771589236258L582.5523817486344 260.4771589236258Q586.0363055179114 258.9107435855012 591.7888308113688 257.85746430641746Q597.514348943824 256.7771778663315 604.5092036433803 257.1552781203616Q611.5310655039386 257.56038553539383 619.3901493555635 259.8019798985721Q627.2762403681905 262.01656710074815 635.243352863824 267.2829634961669L635.243352863824 267.2829634961669Q643.2104653594574 272.5223527305835 648.3688331108676 280.9755941242556Q653.5272008622778 289.4558426789299 654.6885087853701 298.20616284362575ZM642.4272576903952 290.0229930599751L642.4272576903952 290.0229930599751Q644.1827231555349 294.69523191334656 644.4798019265584 299.36747076671804Q644.7768806975821 304.0397096200895 644.1017016725284 308.4148697024375Q643.3995154864725 312.79002978478536 641.9411287923565 316.76008245210096Q640.4827420982406 320.75714228041886 638.538226506086 323.8629657956658L638.538226506086 323.8629657956658Q638.160126252056 324.24106604969586 637.5659687100087 325.1323023627667Q636.9988183289636 325.9965315148354 636.4046607869163 326.88776782790626Q635.8375104058713 327.75199697997505 635.243352863824 328.23812587801365Q634.6491953217767 328.72425477605225 634.4601451947617 328.53520464903727L634.4601451947617 328.53520464903727Q634.2710950677467 328.53520464903727 634.5681738387703 327.75199697997505Q634.865252609794 326.9687893109127 635.1353242198154 325.9965315148354Q635.432402990839 325.0242737187581 635.8375104058713 324.24106604969586Q636.2156106599014 323.4848655416357 636.4046607869163 323.07975812660345L636.4046607869163 323.07975812660345Q638.160126252056 319.78488448434155 638.7542837941032 315.0046169869614Q639.3214341751483 310.2513566505835 639.0243554041247 305.20101754318193Q638.7542837941032 300.1506784357804 637.4849472270023 295.37041093840025Q636.2156106599014 290.6171506020223 633.8929948137167 287.5113270867753L633.8929948137167 287.5113270867753Q633.1097871446543 286.3230120026808 630.7601641374675 283.89236751248757Q628.4375482912828 281.46172302229434 624.5485171069736 278.76100692207956Q620.6594859226643 276.0332836608627 615.4200966882478 273.6836606536758Q610.1537002928291 271.3610448074911 603.536945847303 270.76688726544387L603.536945847303 270.76688726544387Q597.136248689794 270.1997368843988 590.6275228882764 270.49681565542244Q584.0917899257568 270.76688726544387 578.3662717933015 271.7391450615212Q572.6407536608463 272.7114028575985 568.2655935784983 274.0887680687081Q563.8904334961505 275.43912611881547 561.7298606159786 276.60043404190776L561.7298606159786 276.60043404190776Q560.7576028199014 277.194591583955 559.8933736678326 277.38364171097004Q559.029144515764 277.5726918379851 559.029144515764 277.38364171097004L559.029144515764 277.38364171097004Q558.8130872277468 277.00554145693997 559.407244769794 276.4113839148927Q560.0014023118413 275.8442335338476 560.3795025658712 275.43912611881547L560.3795025658712 275.43912611881547Q563.4853260811183 272.3333026035684 569.8050017556208 269.6055793423516Q576.1246774301233 266.8778560811347 583.8217183157353 265.2304192600037Q591.4917520403451 263.5829824388727 599.5668931799872 263.4749537948641Q607.6420343196294 263.39393231185767 614.0427314771382 265.52749803102733L614.0427314771382 265.52749803102733Q618.1208127884626 266.8778560811347 622.4959728708104 269.1194504443129Q626.8711329531583 271.3610448074911 630.6791426544611 274.46686832273815Q634.4601451947617 277.5726918379851 637.5659687100087 281.46172302229434Q640.6987993862579 285.3507542066035 642.4272576903952 290.0229930599751ZM575.9356273031083 361.1868623006335L575.9356273031083 361.1868623006335Q577.5020426412327 352.43654213593777 580.121737258441 343.4161503612205Q582.7414318756494 334.36875142550116 585.4691551368662 325.0242737187581L585.4691551368662 325.0242737187581Q588.1968783980832 316.27395355406236 590.5194942442679 307.14553313533645Q592.8421100904525 297.99010555560847 593.2472175054847 287.5113270867753L593.2472175054847 287.5113270867753Q593.2472175054847 286.53906929069797 593.3282389884912 286.53906929069797Q593.4362676324997 286.53906929069797 593.6253177595148 286.53906929069797L593.6253177595148 286.53906929069797Q593.8143678865299 286.53906929069797 594.219475301562 287.7003772137904L594.219475301562 287.7003772137904Q596.3530410207318 292.56166619417684 595.8669121226931 300.636807333819Q595.3807832246544 308.68494131245893 593.6253177595148 317.3542399941482Q591.8698522943753 325.9965315148354 589.6552650921992 334.07167265447754Q587.4136707290209 342.14681379411957 586.2523628059286 346.81905264749105L586.2523628059286 346.81905264749105Q585.2801050098512 350.30297641676816 584.496897340789 353.32777844900863Q583.7136896717267 356.32557332024703 582.7414318756494 359.6474541235111L582.7414318756494 359.6474541235111Q589.7362865752056 354.97521527013964 596.4610696647403 350.2219549337617Q603.1588455932729 345.4416874363816 608.9923923697368 340.0942695579564Q614.8259391462005 334.74685167953123 619.3901493555635 328.72425477605225Q623.9543595649263 322.7016578725734 626.6820828261433 315.7068031730172L626.6820828261433 315.7068031730172Q631.1652715524997 304.0397096200895 626.3850040551197 294.5872032693379Q621.6317437187417 285.1617040795885 608.3982348276895 281.08362276826426L608.3982348276895 281.08362276826426Q598.4866067399014 278.1668493800323 588.3859285250983 278.1668493800323L588.3859285250983 278.1668493800323Q590.1413939902378 284.78360382555843 590.0333653462292 292.56166619417684Q589.9253367022206 300.33972856279536 588.3859285250983 305.579117797212L588.3859285250983 305.579117797212Q585.6582052638813 315.8958533000323 581.7691740795722 326.6717105398891Q577.8801428952629 337.4745749407481 573.9911117109536 346.81905264749105L573.9911117109536 346.81905264749105Q573.8020615839387 347.1971529015211 573.0188539148763 348.7635682396457Q572.235646245814 350.30297641676816 571.6684958647689 350.11392628975307L571.6684958647689 350.11392628975307Q571.2633884497368 350.11392628975307 571.4524385767518 348.46648946862206Q571.6684958647689 346.81905264749105 571.6684958647689 346.4139452324589L571.6684958647689 346.4139452324589Q571.857545991784 344.0913293862742 572.4246963728291 340.7694485830101Q573.0188539148763 337.4745749407481 573.6130114569236 333.9636440104689Q574.1801618379686 330.4797202411919 574.963369507031 327.07681795492135Q575.7465771760932 323.6739156686507 576.7188349721705 321.3242926614639L576.7188349721705 321.3242926614639Q577.0969352262006 319.9739346113565 578.2582431492929 315.11264563096995Q579.4465582333873 310.2513566505835 580.6078661564798 303.82365233207236Q581.7691740795722 297.4229551745634 582.7414318756494 290.5091219580137Q583.7136896717267 283.62229590246613 584.0917899257568 278.1668493800323L584.0917899257568 278.1668493800323Q582.5523817486344 278.1668493800323 581.7691740795722 278.35589950704735L581.7691740795722 278.35589950704735Q581.9582242065871 286.3230120026808 580.3107873854561 294.5872032693379Q578.6633505643251 302.85139453599504 576.1246774301233 311.33164309066933Q573.6130114569236 319.78488448434155 570.6962380686916 328.3461545220223Q567.7794646804598 336.88041739870084 565.8349490883052 345.2526373093666L565.8349490883052 345.2526373093666Q564.2685337501805 351.6803416278776 563.4853260811183 358.8642464544488Q562.702118412056 366.04815128102007 562.9181757000731 373.2590632685934Q563.1072258270882 380.4429680951646 564.6466340042107 387.35680131171443Q566.2130493423351 394.243627367262 569.3188728575822 400.07717414372587L569.3188728575822 400.07717414372587Q569.9130303996294 401.0494319398032 569.4269015015907 400.96841045679673Q568.940772603552 400.8603818127881 568.3466150615047 400.482281558758L568.3466150615047 400.482281558758Q563.1072258270882 394.45968465527915 560.5685526928863 387.2487726677058Q558.0568867196866 380.0648678411346 557.4627291776394 372.36782695552256Q556.8685716355922 364.6977932309127 557.9488580756781 356.7306807352792Q559.029144515764 348.7635682396457 560.7576028199014 341.17455599804225L560.7576028199014 341.17455599804225Q562.702118412056 332.9913862143916 565.2407915462579 324.8352235917431Q567.7794646804598 316.6790609690945 570.1020805266444 308.79296995646746Q572.4246963728291 300.9068789438404 574.4772406089924 293.4258953462456Q576.5297848451555 285.9449117486507 577.5020426412327 278.76100692207956L577.5020426412327 278.76100692207956Q571.857545991784 279.5172074301397 566.5911495963652 280.9755941242556Q561.3517603619487 282.4339808183716 556.4904713815621 284.0003961564961L556.4904713815621 284.0003961564961Q554.9240560434375 284.37849641052617 554.7350059164226 284.0003961564961L554.7350059164226 284.0003961564961Q554.5459557894075 283.62229590246613 555.2211348144612 283.2171884874339Q555.8963138395148 282.8390882334038 556.112371127532 282.6500381063888L556.112371127532 282.6500381063888Q561.5408104889636 279.3281573031246 568.2655935784983 277.0865629399464Q574.963369507031 274.8719757377703 582.1472743336021 273.98073942469944Q589.3581863211755 273.11651027263076 596.947198562779 273.60263917066936Q604.5092036433803 274.0887680687081 611.9091657579686 276.2223337878777L611.9091657579686 276.2223337878777Q619.6872281265871 278.5449496340624 624.7375672339887 283.40623861444885Q629.7879063413902 288.2675275948354 632.2185508315836 294.39815314232294Q634.6491953217767 300.52877868981034 634.2710950677467 307.44261190636007Q633.8929948137167 314.32943796190773 630.7601641374675 320.75714228041886L630.7601641374675 320.75714228041886Q626.6820828261433 328.91330490306734 620.4704357956493 335.6380879926021Q614.2317816041533 342.33586392113466 606.5617478795434 347.98036057058346Q598.8917141549335 353.62485722003225 590.2224154732442 358.3781175564102Q581.5801239525571 363.1313778927881 573.0188539148763 367.42551649212953L573.0188539148763 367.42551649212953Q572.6407536608463 367.6145666191446 570.8852881957066 368.2897456441983Q569.1298227305671 368.964924669252 568.940772603552 368.58682441522194L568.940772603552 368.58682441522194Q568.940772603552 368.39777428820685 569.9940518826359 367.506537975136Q571.0743383227217 366.6423088230673 572.235646245814 365.859101154005L572.235646245814 365.859101154005Q575.1524196340459 364.3196929768826 575.9356273031083 361.1868623006335ZM588.9530789061433 363.5364853078204L588.9530789061433 363.5364853078204Q591.8698522943753 361.9700699696958 596.2450123767231 359.45840399649603Q600.620172459071 356.9197308622943 604.7252609313974 354.59711501610957Q608.8033422427217 352.2474920089227 611.8011371139601 350.7080838318003Q614.8259391462005 349.14166849367575 615.0149892732156 349.5197687477058L615.0149892732156 349.5197687477058Q615.2040394002306 349.735826035723 614.3398102481619 350.78910531480676Q613.4755810960932 351.8693917548926 612.0982158849836 353.13872832199354Q610.7478578348763 354.3810577280924 609.3704926237667 355.5693728121869Q608.0201345736593 356.7306807352792 607.2369269045971 357.29783111632435L607.2369269045971 357.29783111632435Q603.3478957202879 360.0255543775412 599.5668931799872 362.1591200967108Q595.7588834786845 364.3196929768826 591.8698522943753 366.04815128102007L591.8698522943753 366.04815128102007Q588.5749786521133 367.6145666191446 585.1720763658427 368.7758745422369Q581.7691740795722 369.93718246532933 578.2582431492929 371.3145476764388L578.2582431492929 371.3145476764388Q577.2859853532157 374.04227093765564 576.610806328162 376.7429870378704Q575.9356273031083 379.4707102990874 575.341469761061 381.82033330627416L575.341469761061 381.82033330627416Q575.1524196340459 382.7925911023515 574.8553408630223 383.7648488984288Q574.5852692530009 384.7371066945061 574.3692119649836 384.7371066945061L574.3692119649836 384.7371066945061Q573.9911117109536 384.5210494064888 573.883083066945 383.2787200003901Q573.8020615839387 382.00938343328926 573.8020615839387 381.2261757642269L573.8020615839387 381.2261757642269Q573.8020615839387 379.4707102990874 573.8020615839387 377.04006580889404Q573.8020615839387 374.6094213187008 573.9911117109536 372.85395585356116L573.9911117109536 372.85395585356116Q572.6407536608463 373.2590632685934 571.3714170937453 374.04227093765564Q570.1020805266444 374.7984714457158 570.2911306536594 376.36488678384035L570.2911306536594 376.36488678384035Q570.2911306536594 382.19843356030424 570.8852881957066 386.8706724136757L570.8852881957066 386.8706724136757Q571.857545991784 393.48742685920183 574.3692119649836 399.5100237626807L574.3692119649836 399.5100237626807Q574.5852692530009 399.8881240167108 574.8553408630223 400.482281558758Q575.1524196340459 401.0494319398032 574.963369507031 401.26548922782035L574.963369507031 401.26548922782035Q574.5852692530009 401.45453935483533 573.2079040418914 400.482281558758L573.2079040418914 400.482281558758Q571.0743383227217 397.75455829754117 569.5079229845971 395.13486368033284Q567.9685148074748 392.5151690631245 566.9962570113975 387.0597225406908L566.9962570113975 387.0597225406908Q566.5911495963652 385.30425707555116 566.5101281133589 382.3874836873192Q566.4020994693502 379.4707102990874 566.5911495963652 376.9590443258876L566.5911495963652 376.9590443258876Q566.5911495963652 375.39262898776303 567.1853071384124 374.23132106467074Q567.7794646804598 373.07001314157844 569.7239802726143 372.0977553455011L569.7239802726143 372.0977553455011Q570.8852881957066 371.5035978034539 573.69403293993 370.23426123635295Q576.5297848451555 368.964924669252 579.6356083604024 367.6145666191446Q582.7414318756494 366.26420856903724 585.3611264928577 365.07589348494275Q587.980821110066 363.91458556185046 588.9530789061433 363.5364853078204ZM686.5839659289063 336.50231714467077L686.5839659289063 336.50231714467077Q687.1511163099514 333.9636440104689 687.25914495396 330.6687703682069Q687.3671735979685 327.373896725945 686.7730160559213 323.8629657956658Q686.178858513874 320.3520348653866 684.7204718197581 317.1651898671332Q683.2620851256421 313.95133770787766 680.9394692794575 311.6017147006909L680.9394692794575 311.6017147006909Q679.7781613563651 310.84551419263073 679.5891112293501 310.84551419263073L679.5891112293501 310.84551419263073Q678.8059035602878 310.84551419263073 679.5891112293501 312.006822115723L679.5891112293501 312.006822115723Q680.7504191524424 314.5184880889227 680.4533403814188 319.8659059673479Q680.1562616103952 325.2133238457732 679.1840038143179 330.9658491392305Q678.2117460182405 336.69136727168575 677.1584667391568 341.2555774810487Q676.0781802990709 345.84679485141373 675.889130172056 346.81905264749105L675.889130172056 346.81905264749105Q674.5117649609464 350.30297641676816 673.4584856818626 355.5693728121869Q672.3781992417768 360.8087620466034 672.3781992417768 364.10363568886544L672.3781992417768 364.10363568886544Q672.1891491147617 364.5087431038977 672.1891491147617 365.67005102699Q672.1891491147617 366.8313589500823 672.7833066568089 367.0204090770974L672.7833066568089 367.0204090770974Q672.972356783824 367.0204090770974 673.5395071648691 366.04815128102007Q674.1336647069163 365.07589348494275 674.5117649609464 364.6977932309127L674.5117649609464 364.6977932309127Q678.0226958912256 358.48614620041883 681.2365480504811 351.0861840858304Q684.4504002097366 343.68622197124193 686.5839659289063 336.50231714467077ZM687.3671735979685 365.859101154005L687.3671735979685 365.859101154005Q688.1233741060287 362.375177384728 689.8788395711683 356.81170221828563Q691.6343050363079 351.27523421284536 692.7956129594003 345.36066595337513Q693.9569208824926 339.4190905329027 693.9569208824926 333.69357240044747Q693.9569208824926 327.94104710699 691.6343050363079 324.24106604969586L691.6343050363079 324.24106604969586Q690.8510973672456 323.4848655416357 690.4729971132155 323.4848655416357L690.4729971132155 323.4848655416357Q690.0678896981833 323.4848655416357 690.2839469862005 324.24106604969586L690.2839469862005 324.24106604969586Q690.2839469862005 331.6410281642842 688.6095030040674 337.9607038387867Q686.9620661829364 344.2803795132893 685.0175505907818 350.30297641676816L685.0175505907818 350.30297641676816Q681.7226769485197 360.2146045045562 678.9949536873029 369.6671108553078Q676.267230426086 379.0926100450573 676.6723378411182 389.00423813284533L676.6723378411182 389.00423813284533Q676.6723378411182 389.5983956748926 676.7533593241246 390.27357469994627Q676.8613879681332 390.94875372499996 677.4285383491783 390.94875372499996L677.4285383491783 390.94875372499996Q677.8336457642105 390.94875372499996 678.0226958912256 390.5706534709699Q678.2117460182405 390.16554605593774 678.6168534332728 389.3823383868754L678.6168534332728 389.3823383868754Q680.5613690254274 384.7371066945061 683.0730349986271 378.4174310200036Q685.611708132829 372.0977553455011 687.3671735979685 365.859101154005ZM673.5395071648691 400.6713316857731L673.5395071648691 400.6713316857731Q669.866533268577 396.78230050146385 667.9220176764225 392.0290401650859Q665.9775020842678 387.2487726677058 665.1942944152055 382.30646220431277Q664.4110867461433 377.33714457991766 664.7891870001733 372.2868054725161Q665.1942944152055 367.23646636511455 666.3556023382979 362.75327763875805L666.3556023382979 362.75327763875805Q668.1110678034374 355.75842293920186 670.8387910646544 348.7635682396457Q673.5395071648691 341.7417063790874 675.4840227570237 334.85488032353976Q677.4285383491783 327.94104710699 677.725617120202 321.24327117845746Q678.0226958912256 314.5184880889227 674.9168723759786 308.11779093141377L674.9168723759786 308.11779093141377Q674.3227148339314 307.14553313533645 674.1336647069163 307.14553313533645L674.1336647069163 307.14553313533645Q673.9446145799013 307.14553313533645 673.9446145799013 307.44261190636007Q673.9446145799013 307.7126835163816 674.1336647069163 307.9287408043988L674.1336647069163 307.9287408043988Q674.7278222489635 313.7622875808627 673.3504570378541 319.9739346113565Q672.0000989877467 326.1855816418505 669.866533268577 332.72131460437015Q667.7059603884052 339.2300404058876 665.086265771197 346.1168664614353Q662.4665711539886 353.030699677985 660.711105688849 360.2146045045562L660.711105688849 360.2146045045562Q659.3607476387417 365.481000899975 658.874618740703 370.90944026140664Q658.3884898426644 376.36488678384035 659.5497977657567 381.71230466226564Q660.711105688849 387.0597225406908 663.816929204096 391.9210115210773Q666.9497598803451 396.78230050146385 672.7833066568089 400.8603818127881L672.7833066568089 400.8603818127881Q673.161406910839 401.26548922782035 673.7555644528862 401.3465107108268Q674.3227148339314 401.45453935483533 673.5395071648691 400.6713316857731ZM675.1059225029936 393.27136957118466L675.1059225029936 393.27136957118466Q674.5117649609464 391.7319613940623 673.8365859358927 389.3823383868754Q673.161406910839 387.0597225406908 672.7833066568089 384.9261568215211L672.7833066568089 384.9261568215211Q672.3781992417768 384.14294915245887 671.8110488607316 382.00938343328926Q671.2168913186844 379.87581771411953 670.8387910646544 379.87581771411953L670.8387910646544 379.87581771411953Q670.0555833955921 379.87581771411953 669.7585046245684 381.2261757642269Q669.4614258535448 382.5765338143343 669.4614258535448 384.62907805049747Q669.4614258535448 386.68162228666074 669.7585046245684 388.8962094888368Q670.0555833955921 391.13780385201505 670.6227337766371 392.7042191901396L670.6227337766371 392.7042191901396Q671.8110488607316 396.59325037444876 673.4584856818626 398.13265855157124Q675.1059225029936 399.6990738896958 677.8336457642105 400.6713316857731L677.8336457642105 400.6713316857731Q678.9949536873029 401.26548922782035 679.5891112293501 401.26548922782035L679.5891112293501 401.26548922782035Q679.7781613563651 401.26548922782035 679.6701327123566 400.96841045679673Q679.5891112293501 400.6713316857731 679.373053941333 400.6713316857731L679.373053941333 400.6713316857731Q678.0226958912256 399.10491634764855 676.9424094511397 397.3764580435111Q675.889130172056 395.62099257837144 675.1059225029936 393.27136957118466ZM690.2839469862005 292.75071632119193L690.2839469862005 292.75071632119193Q689.3116891901232 292.75071632119193 687.25914495396 292.4536375501683Q685.2066007177967 292.1565587791447 685.2066007177967 290.6171506020223L685.2066007177967 290.6171506020223Q685.2066007177967 290.0229930599751 686.9620661829364 289.1587639079063Q688.7175316480759 288.2675275948354 690.8510973672456 286.6200907737044Q692.9846630864153 284.9726539525734 694.7401285515548 282.3529593353652Q696.4955940166944 279.7332647181569 696.4955940166944 275.62817624583045L696.4955940166944 275.62817624583045Q696.4955940166944 270.5778371384289 694.5510784245398 268.0661711652292L694.5510784245398 268.0661711652292Q694.1729781705097 267.47201362318197 693.5788206284625 266.79683459812827Q692.9846630864153 266.1216555730746 693.2007203744324 265.9055982850574L693.2007203744324 265.9055982850574Q693.5788206284625 265.9055982850574 694.0649495265011 266.20267705608103Q694.5510784245398 266.49975582710465 694.7401285515548 266.68880595411963L694.7401285515548 266.68880595411963Q698.629159735864 268.8223716732893 700.6817039720273 272.2252739595599Q702.7072410471883 275.62817624583045 702.7072410471883 278.76100692207956L702.7072410471883 278.76100692207956Q702.7072410471883 284.9726539525734 699.7904676589563 288.86168513688267Q696.8736942707245 292.75071632119193 690.2839469862005 292.75071632119193ZM683.0730349986271 284.9726539525734L683.0730349986271 284.9726539525734Q680.7504191524424 285.9449117486507 680.7504191524424 283.8113460294811L680.7504191524424 283.8113460294811Q680.7504191524424 282.24493069135656 681.9117270755348 280.78654399724064Q683.0730349986271 279.3281573031246 684.1533214387131 277.5726918379851Q685.2066007177967 275.8442335338476 685.611708132829 273.60263917066936Q685.9898083868591 271.3610448074911 684.4504002097366 268.0661711652292L684.4504002097366 268.0661711652292Q684.0452927947044 267.0939133691519 683.0730349986271 265.9055982850574Q682.1007772025498 264.744290361965 682.505884617582 264.55524023495L682.505884617582 264.55524023495Q682.8839848716121 264.366190107935 684.1533214387131 264.85231900597364Q685.422658005814 265.33844790401224 685.800758259844 265.52749803102733L685.800758259844 265.52749803102733Q689.095631902106 267.0939133691519 690.7700758842392 270.1997368843988Q692.4175127053701 273.30556039964574 692.4175127053701 275.62817624583045L692.4175127053701 275.62817624583045Q692.4175127053701 279.3281573031246 689.3927106731296 281.75880179331796Q686.3949158018912 284.1894462835112 683.0730349986271 284.9726539525734ZM677.4285383491783 274.46686832273815L677.4285383491783 274.46686832273815Q677.4285383491783 273.49461052666084 678.0226958912256 272.2252739595599Q678.6168534332728 270.9829445534611 679.9672114833802 270.9829445534611L679.9672114833802 270.9829445534611Q680.9394692794575 270.9829445534611 681.5336268215048 272.2252739595599Q682.1007772025498 273.49461052666084 682.1007772025498 274.46686832273815L682.1007772025498 274.46686832273815Q682.1007772025498 275.2500759918004 681.5336268215048 276.5194125589013Q680.9394692794575 277.78874912600224 679.9672114833802 277.78874912600224L679.9672114833802 277.78874912600224Q678.6168534332728 277.78874912600224 678.0226958912256 276.60043404190776Q677.4285383491783 275.43912611881547 677.4285383491783 274.46686832273815ZM718.6684731994575 328.91330490306734L718.6684731994575 328.91330490306734Q718.8575233264725 327.1578394379278 719.8297811225498 324.72719494773446Q720.8020389186271 322.29655045754123 722.4494757397581 320.08196325536517Q724.0969125608891 317.8403688921869 726.446535568076 315.97687478303874Q728.7691514142606 314.14038783489275 731.6859248024925 313.5462302928455L731.6859248024925 313.5462302928455Q737.9245789939886 312.3849223697531 742.0026603053128 314.32943796190773Q746.080741616637 316.27395355406236 748.2143073358068 318.81262668826423L748.2143073358068 318.81262668826423Q748.997515004869 319.9739346113565 748.808464877854 320.1629847383716L748.808464877854 320.1629847383716Q748.4033574628218 320.56809215340377 747.4310996667444 319.9739346113565L747.4310996667444 319.9739346113565Q746.2697917436521 319.1907269422943 743.6500971264438 318.62357656124914Q741.0304025092355 318.0294190192019 738.005600476995 318.3264977902255Q735.0078056057566 318.62357656124914 732.1720537005311 320.1629847383716Q729.3633089563078 321.72940007649606 727.6078434911682 325.2133238457732L727.6078434911682 325.2133238457732Q726.0414281530437 328.53520464903727 725.4742777719986 332.01912841831427Q724.8801202299513 335.53005934859345 724.7990987469449 338.5548613808339Q724.6910701029364 341.5526562520723 724.8801202299513 343.68622197124193Q725.0691703569664 345.84679485141373 725.0691703569664 346.6029953594739L725.0691703569664 346.6029953594739Q725.4742777719986 348.7635682396457 725.7713565430223 351.95041323789906Q726.0414281530437 355.1642653971546 726.0414281530437 358.48614620041883Q726.0414281530437 361.78101984268073 725.8523780260286 364.9948720019363Q725.6633278990136 368.20872416119187 725.0691703569664 370.53134000737657L725.0691703569664 370.53134000737657Q724.8801202299513 371.1254975494238 724.5830414589278 372.4758555995312Q724.3129698489063 373.8262136496385 723.907862433874 373.8262136496385L723.907862433874 373.8262136496385Q722.9356046377967 373.8262136496385 722.9356046377967 372.4758555995312Q722.9356046377967 371.1254975494238 722.9356046377967 370.53134000737657L722.9356046377967 370.53134000737657Q722.5575043837667 365.67005102699 721.5852465876893 360.7007334025949Q720.6129887916121 355.75842293920186 719.7217524785411 350.49202654378314Q718.8575233264725 345.2526373093666 718.4794230724424 339.9052194309413Q718.0743156574102 334.55780155251614 718.6684731994575 328.91330490306734ZM711.8626686269163 367.42551649212953L711.8626686269163 367.42551649212953Q712.0517187539314 363.5364853078204 711.1874896018626 356.43360196425556Q710.2962532887917 349.33071862069073 710.4853034158068 340.01324807494996L710.4853034158068 340.01324807494996Q710.701360703824 335.1519590945634 711.4575612118841 329.9935913431532Q712.2407688809463 324.8352235917431 715.1575422691783 319.78488448434155L715.1575422691783 319.78488448434155Q718.2633657844252 314.32943796190773 723.0436332818053 311.7097433446994Q727.7968936181833 309.0900487274911 731.3078245484625 309.2790988545062L731.3078245484625 309.2790988545062Q731.8749749295075 309.2790988545062 732.4691324715548 309.2790988545062Q733.0632900136021 309.2790988545062 733.0632900136021 309.46814898152115L733.0632900136021 309.46814898152115Q733.0632900136021 309.8732563965534 732.8472327255848 309.7652277525448Q732.6581825985699 309.65719910853625 731.4968746754774 310.0623065235684L731.4968746754774 310.0623065235684Q727.9859437451984 311.0345643196457 725.2852276449836 313.27615868282396Q722.5575043837667 315.490745885 720.6129887916121 318.40751927323197Q718.6684731994575 321.3242926614639 717.5071652763651 324.457123337713Q716.3188501922706 327.56294685295995 716.1298000652556 330.07461282615964L716.1298000652556 330.07461282615964Q714.9684921421632 340.7694485830101 716.3188501922706 348.7635682396457L716.3188501922706 348.7635682396457Q717.291107988348 355.1642653971546 717.8852655303951 362.07809861370436Q718.4794230724424 368.964924669252 717.3991366323565 374.71744996270934Q716.3188501922706 380.4429680951646 713.3210553210323 384.2509777964674Q710.2962532887917 388.031980336768 704.0846062582979 388.4100805907981L704.0846062582979 388.4100805907981Q703.4904487162506 388.4100805907981 702.6262195641818 388.32905910779164Q701.734983251111 388.2210304637831 701.734983251111 387.84293020975304L701.734983251111 387.84293020975304Q701.734983251111 387.4378227947208 703.4904487162506 386.46556499864346L703.4904487162506 386.46556499864346Q708.5407878236522 384.14294915245887 710.1072031617767 379.65976042610237Q711.6736184999012 375.20357886074805 711.8626686269163 367.42551649212953ZM691.2562047822778 390.3545961829527L691.2562047822778 390.3545961829527Q693.9569208824926 394.64873478229424 699.898496302965 396.6742718574552Q705.8400717234374 398.7268160936185 713.996234346086 396.4042002474338L713.996234346086 396.4042002474338Q718.0743156574102 395.2158851633393 721.1801391726572 392.29911177510735Q724.3129698489063 389.3823383868754 726.3385069240674 385.7903859735899Q728.3910511602305 382.19843356030424 729.4443304393143 378.309402375995Q730.5246168794001 374.4203711916857 730.7136670064152 371.1254975494238L730.7136670064152 371.1254975494238Q730.9027171334302 365.67005102699 730.4165882353916 360.43066179257335Q729.930459337353 355.1642653971546 729.2552803122993 350.2219549337617Q728.5801012872455 345.2526373093666 728.0939723892069 340.580398455995Q727.6078434911682 335.9081596026235 727.9859437451984 331.4519780372692L727.9859437451984 331.4519780372692Q728.3910511602305 326.59068905688264 730.7136670064152 324.05201592268077Q733.0632900136021 321.5403499494811 736.4661922998727 320.8381637634252Q739.8690945861432 320.1629847383716 743.5420684824352 321.3242926614639Q747.2420495397295 322.5126077455584 750.3478730549764 325.0242737187581L750.3478730549764 325.0242737187581Q751.1310807240387 325.42938113379034 750.9420305970236 325.9965315148354L750.9420305970236 325.9965315148354Q750.9420305970236 326.40163892986766 750.5639303429936 326.1855816418505Q750.1588229279614 325.9965315148354 749.7807226739313 325.8074813878204L749.7807226739313 325.8074813878204Q742.569810686358 323.4848655416357 738.5997580190423 324.457123337713Q734.6026981907245 325.42938113379034 734.2245979366944 331.4519780372692L734.2245979366944 331.4519780372692Q733.8194905216621 338.4468327368254 735.2778772157782 347.8723319265748Q736.7362639098941 357.29783111632435 736.358163655864 368.7758745422369L736.358163655864 368.7758745422369Q736.5472137828791 372.6649057265462 735.4939345037952 377.71524483394774Q734.4136480637094 382.7925911023515 731.9830035735162 387.5458514387294Q729.5523590833228 392.29911177510735 725.555299255005 395.99909283240163Q721.5852465876893 399.6990738896958 716.1298000652556 400.6713316857731L716.1298000652556 400.6713316857731Q705.8400717234374 402.23774702389767 699.7094461759499 399.5100237626807Q693.5788206284625 396.78230050146385 690.8510973672456 391.13780385201505L690.8510973672456 391.13780385201505Q690.4729971132155 389.97649592892265 690.4729971132155 389.78744580190767L690.4729971132155 389.78744580190767L690.6620472402305 389.78744580190767Q690.6620472402305 389.78744580190767 691.2562047822778 390.3545961829527ZM699.7904676589563 390.3545961829527L699.7904676589563 390.3545961829527Q703.4904487162506 391.32685397903003 708.7568451116693 391.13780385201505L708.7568451116693 391.13780385201505Q710.4853034158068 390.94875372499996 713.0239765500087 390.16554605593774Q715.5626496842104 389.3823383868754 715.7516998112255 389.78744580190767L715.7516998112255 389.78744580190767Q716.3188501922706 390.5706534709699 714.5903918881332 391.7319613940623Q712.8349264229936 392.8932693171546 710.1072031617767 393.75749846922326Q707.3794799005599 394.64873478229424 704.4627065123279 394.94581355331786Q701.545933124096 395.2158851633393 699.6014175319414 394.45968465527915L699.6014175319414 394.45968465527915Q695.9014364746472 392.8932693171546 694.2539996535162 391.0567823690086Q692.6065628323852 389.1932882598604 691.2562047822778 386.46556499864346L691.2562047822778 386.46556499864346L690.8510973672456 385.7093644905834Q690.4729971132155 384.9261568215211 690.6620472402305 384.7371066945061L690.6620472402305 384.7371066945061Q690.8510973672456 384.5210494064888 691.2562047822778 384.7371066945061L691.2562047822778 384.7371066945061Q691.4452549092929 384.9261568215211 691.4452549092929 385.1152069485362L691.4452549092929 385.1152069485362Q693.7678707554775 387.2487726677058 695.4153075766085 388.32905910779164Q697.0897515587417 389.3823383868754 699.7904676589563 390.3545961829527ZM788.2659271019915 298.20616284362575L788.2659271019915 298.20616284362575Q784.9710534597294 309.65719910853625 780.7849435043966 321.72940007649606Q776.5988335490637 333.7745938834539 772.1426519837094 344.46942964030427L772.1426519837094 344.46942964030427Q771.9536018566943 345.0635871823515 771.0623655436235 346.6029953594739Q770.1981363915548 348.16941069759844 769.6039788495075 347.98036057058346L769.6039788495075 347.98036057058346Q769.2258785954774 347.98036057058346 769.1178499514689 346.1168664614353Q769.0368284684624 344.2803795132893 769.2258785954774 343.308121717212L769.2258785954774 343.308121717212Q769.6039788495075 340.7694485830101 770.3871865185698 337.096474686718Q771.170394187632 333.39649362942384 772.0346233397007 329.5074624451146Q772.9258596527717 325.6184312608053 773.7900888048404 321.91845020351116Q774.654317956909 318.218469146217 775.6265757529865 315.490745885L775.6265757529865 315.490745885Q776.0316831680186 314.32943796190773 777.0039409640959 310.44040677759847Q777.9761987601732 306.5513755932892 779.1375066832655 301.1229362318576Q780.298814606358 295.6674897094239 781.5681511734589 289.4558426789299Q782.8374877405598 283.2171884874339 783.7017168926285 277.38364171097004Q784.5929532056994 271.5500949345062 784.9710534597294 266.68880595411963Q785.3491537137595 261.82751697373317 784.7820033327145 259.31585100053337L784.7820033327145 259.31585100053337Q784.1878457906672 257.37133540837874 784.7820033327145 257.37133540837874L784.7820033327145 257.37133540837874Q785.1601035867444 257.37133540837874 785.457182357768 257.85746430641746Q785.7542611287917 258.34359320445606 786.1323613828217 258.72169345848613L786.1323613828217 258.72169345848613Q788.0768769749764 262.2326243887653 789.1571634150622 267.2829634961669Q790.2104426941461 272.3333026035684 790.4264999821633 277.78874912600224Q790.6155501091782 283.2171884874339 790.021392567131 288.6726350098677Q789.4542421860859 294.1010743712993 788.2659271019915 298.20616284362575ZM780.4878647333729 253.2662469360524L780.4878647333729 253.2662469360524Q783.0265378675748 263.20488218484263 781.7572013004739 274.0887680687081Q780.4878647333729 284.9726539525734 777.382041218126 296.2616472514711Q774.2762177028791 307.5236333893665 770.3871865185698 319.10970545928785Q766.4981553342606 330.6687703682069 763.7704320730437 342.33586392113466L763.7704320730437 342.33586392113466Q762.0149666079041 349.735826035723 760.9616873288204 357.59490988734797Q759.8814008887344 365.481000899975 759.8814008887344 373.1510346245848Q759.8814008887344 380.84807551019685 761.1507374558354 387.9239516927595Q762.4200740229363 395.0268350363242 765.5258975381832 400.6713316857731L765.5258975381832 400.6713316857731Q765.9039977922133 401.45453935483533 765.8229763092069 401.8326396088654Q765.7149476651983 402.23774702389767 764.5536397421059 400.6713316857731L764.5536397421059 400.6713316857731Q759.5033006347044 394.8377849093092 757.0726561445111 387.4378227947208Q754.6420116543178 380.0648678411346 754.2369042392856 371.88169805748396Q753.8588039852556 363.72553543483536 755.0201119083479 354.97521527013964Q756.1814198314402 346.2248951054438 758.3419927116121 337.85267519477816L758.3419927116121 337.85267519477816Q761.2587660998439 326.1855816418505 764.8507185131296 314.92359550395497Q768.4426709264152 303.6346022050574 771.6565230856708 292.9397664482069Q774.8703752449262 282.24493069135656 777.0039409640959 272.2252739595599Q779.1375066832655 262.2326243887653 779.1375066832655 252.88814668202232L779.1375066832655 252.88814668202232Q779.1375066832655 251.915888885945 779.3265568102806 251.915888885945L779.3265568102806 251.915888885945Q780.1097644793429 251.915888885945 780.4878647333729 253.2662469360524ZM815.8942528071883 400.6713316857731L815.8942528071883 400.6713316857731Q808.6833408196148 397.3764580435111 804.4162093812755 390.3545961829527Q800.1490779429363 383.35974148339653 799.176820146859 374.23132106467074L799.176820146859 374.23132106467074Q798.2045623507817 365.2919507729599 799.176820146859 359.3503753524875Q800.1490779429363 353.4087999320151 801.4994359930437 347.5752531555512L801.4994359930437 347.5752531555512Q801.6884861200587 346.81905264749105 802.2826436621059 344.955558538343Q802.8497940431511 343.1190715901969 803.1468728141746 341.17455599804225Q803.4439515851982 339.2300404058876 803.1468728141746 337.7716537117717Q802.8497940431511 336.3132670176558 801.4994359930437 335.9081596026235L801.4994359930437 335.9081596026235Q798.7717127318268 335.3410092215785 795.2877889625497 338.33880409281676Q791.7768580322705 341.36360612505734 788.563005873015 345.84679485141373Q785.3491537137595 350.30297641676816 782.7294590965512 355.08324391414817Q780.1097644793429 359.8365042505261 779.3265568102806 362.56422751174307L779.3265568102806 362.56422751174307Q777.571091345141 368.20872416119187 775.6265757529865 373.2590632685934Q773.6820601608318 378.309402375995 772.1426519837094 383.35974148339653L772.1426519837094 383.35974148339653Q771.5484944416621 385.49330720256626 771.170394187632 385.30425707555116L771.170394187632 385.30425707555116Q770.7652867725999 385.30425707555116 770.6842652895934 384.5210494064888Q770.5762366455848 383.7648488984288 770.5762366455848 382.7925911023515L770.5762366455848 382.7925911023515Q770.5762366455848 375.01452873373296 771.7375445686772 367.1284377211059Q772.9258596527717 359.24234670847886 774.9513967279327 351.46428433986046Q777.0039409640959 343.68622197124193 779.5156069372956 335.9081596026235Q782.0542800714975 328.130097234005 784.3768959176822 320.1629847383716L784.3768959176822 320.1629847383716Q787.5097265939313 310.2513566505835 790.3184713381546 299.9346211477631Q793.1272160823779 289.644892805945 794.0994738784552 277.78874912600224L794.0994738784552 277.78874912600224Q794.0994738784552 276.81649132992493 794.0994738784552 276.70846268591634Q794.0994738784552 276.60043404190776 794.3155311664724 276.60043404190776L794.3155311664724 276.60043404190776Q794.8826815475174 276.60043404190776 795.2877889625497 278.1668493800323L795.2877889625497 278.1668493800323Q796.260046758627 280.7055225142342 796.1520181146185 285.26973272359714Q796.0439894706099 289.83394293296 795.3688104455562 295.2893894553938Q794.6936314205025 300.71782881682543 793.4242948534015 306.3623254662742Q792.1549582863006 312.006822115723 790.8046002361933 316.46300368107734L790.8046002361933 316.46300368107734Q794.5045812934875 312.5739724967682 799.554920400889 310.44040677759847Q804.6052595082906 308.30684105842886 811.6001142078468 309.2790988545062L811.6001142078468 309.2790988545062Q819.5942338644824 310.44040677759847 823.8613653028217 315.0046169869614Q828.128496741161 319.59583435732645 829.6949120792856 325.9965315148354Q831.2613274174101 332.42423583334653 830.5591412313544 339.71616930392634Q829.8839622063007 347.00810277450614 828.128496741161 353.81390734704723L828.128496741161 353.81390734704723Q826.5890885640387 359.0532965814639 825.2117233529291 363.05035640978167Q823.8613653028217 367.0204090770974 822.5110072527144 370.3422898803615Q821.1336420416048 373.6371635226235 820.1613842455275 376.55393691085544Q819.1891264494502 379.4707102990874 818.6219760684052 382.7925911023515L818.6219760684052 382.7925911023515Q818.2168686533729 384.9261568215211 817.8387683993428 384.9261568215211L817.8387683993428 384.9261568215211Q817.4336609843107 384.9261568215211 817.1635893742891 384.14294915245887Q816.8665106032655 383.35974148339653 816.6774604762505 382.5765338143343L816.6774604762505 382.5765338143343Q815.489145392156 378.309402375995 816.5694318322419 372.0977553455011Q817.6497182723277 365.859101154005 819.3781765764653 358.97227509845743Q821.1336420416048 352.0584418819077 822.5920287357208 344.955558538343Q824.0504154298368 337.85267519477816 823.753336658813 331.8300782912993Q823.4832650487916 325.8074813878204 820.5664916605598 321.24327117845746Q817.6497182723277 316.6790609690945 810.6278564117695 314.92359550395497L810.6278564117695 314.92359550395497Q807.7110830235375 314.14038783489275 804.308180737267 314.43746660591637Q800.9052784509964 314.73454537694 797.907483579758 315.97687478303874Q794.8826815475174 317.2462113501397 792.5600657013329 319.59583435732645Q790.2104426941461 321.91845020351116 789.4542421860859 325.0242737187581L789.4542421860859 325.0242737187581Q793.1272160823779 321.1352425344488 798.9607628588418 318.62357656124914Q804.7943096353056 316.08490342704727 810.2497561577394 317.8403688921869L810.2497561577394 317.8403688921869Q815.3000952651411 319.3797770693093 817.4336609843107 323.4848655416357Q819.5942338644824 327.56294685295995 819.9723341185125 330.6687703682069L819.9723341185125 330.6687703682069Q820.7555417875748 337.4745749407481 819.1081049664439 343.01104294618835Q817.4336609843107 348.5475109516285 815.3000952651411 353.62485722003225L815.3000952651411 353.62485722003225Q814.9219950111109 354.1920076010773 814.1387873420487 355.46134416817824Q813.3555796729864 356.7306807352792 812.9774794189562 356.5416306082642L812.9774794189562 356.5416306082642Q812.5723720039242 356.5416306082642 812.5723720039242 354.97521527013964Q812.5723720039242 353.4087999320151 812.7884292919413 352.65259942395494L812.7884292919413 352.65259942395494Q813.3555796729864 350.7080838318003 813.7606870880186 346.5219738764674Q814.1387873420487 342.33586392113466 814.03075869804 337.85267519477816Q813.9497372150337 333.39649362942384 812.8694507749477 329.5074624451146Q811.816171495864 325.6184312608053 809.4665484886772 324.24106604969586L809.4665484886772 324.24106604969586Q806.7388252274602 322.7016578725734 802.8497940431511 323.3768368976271Q798.9607628588418 324.05201592268077 794.5045812934875 328.130097234005L794.5045812934875 328.130097234005Q790.6155501091782 331.6410281642842 787.8878268479614 336.20523837364715Q785.1601035867444 340.7694485830101 783.2155879945898 348.16941069759844L783.2155879945898 348.16941069759844Q784.3768959176822 346.0358449784288 786.9155690518841 342.14681379411957Q789.4542421860859 338.2577826098103 792.6410871843393 334.74685167953123Q795.8549393435949 331.2629279102541 799.4468917568805 329.21038367409096Q803.0658513311681 327.1578394379278 806.3607249734301 328.72425477605225L806.3607249734301 328.72425477605225Q808.4942906925999 329.88556269914466 809.1694697176534 332.72131460437015Q809.8716559037093 335.53005934859345 809.5745771326857 339.04099027887264Q809.2774983616621 342.52491404814964 808.4942906925999 345.84679485141373Q807.7110830235375 349.14166849367575 807.1439326424925 351.0861840858304L807.1439326424925 351.0861840858304Q805.0103669233227 356.9197308622943 804.2271592542605 363.833564078844Q803.4439515851982 370.72039013439155 804.308180737267 377.33714457991766Q805.1994170503378 383.9538990254438 808.1161904385698 389.78744580190767Q811.0329638268016 395.62099257837144 816.6774604762505 399.6990738896958L816.6774604762505 399.6990738896958Q818.4059187803879 400.6713316857731 817.3526395013042 400.6713316857731Q816.2723530612183 400.6713316857731 815.8942528071883 400.6713316857731ZM820.9445919145898 399.10491634764855L820.9445919145898 399.10491634764855Q818.2168686533729 397.5655081705261 815.7862241631797 395.81004270538654Q813.3555796729864 394.054577240247 811.0329638268016 389.00423813284533L811.0329638268016 389.00423813284533Q810.0607060307244 387.0597225406908 809.5745771326857 383.7648488984288Q809.088448234647 380.4429680951646 808.9804195906385 377.4451732239263Q808.899398107632 374.4203711916857 809.2774983616621 372.36782695552256Q809.6555986156922 370.3422898803615 810.2497561577394 370.53134000737657L810.2497561577394 370.53134000737657Q810.6278564117695 370.53134000737657 811.0329638268016 371.39556915944524Q811.4110640808318 372.2868054725161 811.6001142078468 373.4481133956084Q811.816171495864 374.6094213187008 812.005221622879 375.68970775878665Q812.194271749894 376.7429870378704 812.194271749894 377.1480944529027L812.194271749894 377.1480944529027Q812.9774794189562 381.4152258912419 813.5446298000014 383.4677701274052Q814.1387873420487 385.49330720256626 815.1110451381259 387.84293020975304L815.1110451381259 387.84293020975304Q816.6774604762505 390.94875372499996 818.2168686533729 393.48742685920183Q819.7832839914976 395.99909283240163 822.1058998376822 398.13265855157124L822.1058998376822 398.13265855157124Q823.0781576337595 398.91586622063346 822.5920287357208 399.3209736356657Q822.1058998376822 399.6990738896958 820.9445919145898 399.10491634764855ZM771.7375445686772 400.6713316857731L771.7375445686772 400.6713316857731Q771.9536018566943 400.6713316857731 771.4674729586558 400.8603818127881Q770.9813440606171 401.0494319398032 769.6039788495075 400.6713316857731L769.6039788495075 400.6713316857731Q768.0645706723851 399.8881240167108 766.390126690252 397.75455829754117Q764.7426898691209 395.62099257837144 763.7704320730437 389.3823383868754L763.7704320730437 389.3823383868754Q763.3923318190136 386.8706724136757 763.3923318190136 383.2787200003901Q763.3923318190136 379.65976042610237 763.6894105900373 376.472915427849Q763.9594822000587 373.2590632685934 764.5536397421059 370.90944026140664Q765.1477972841532 368.58682441522194 765.9039977922133 368.7758745422369L765.9039977922133 368.7758745422369Q766.1200550802305 368.7758745422369 766.3091052072456 369.93718246532933Q766.4981553342606 371.1254975494238 766.6872054612755 372.5838842435397Q766.8762555882906 374.04227093765564 766.8762555882906 375.5006576317717Q766.8762555882906 376.9590443258876 766.8762555882906 377.52619470693276L766.8762555882906 377.52619470693276Q767.0923128763078 381.82033330627416 767.3623844863292 383.84587038143525Q767.6594632573529 385.8984146175984 768.2536207994001 389.3823383868754L768.2536207994001 389.3823383868754Q768.8207711804453 393.0823194441697 769.6039788495075 396.10712147641016Q770.3871865185698 399.10491634764855 771.7375445686772 400.6713316857731ZM889.9748954360786 314.32943796190773L889.9748954360786 314.32943796190773Q890.1639455630938 314.5184880889227 890.1639455630938 315.2206742749786Q890.1639455630938 315.8958533000323 889.9748954360786 316.27395355406236L889.9748954360786 316.27395355406236Q888.2194299709391 321.91845020351116 883.9522985325997 324.24106604969586Q879.6581599332584 326.59068905688264 876.3632862909964 326.59068905688264L876.3632862909964 326.59068905688264Q872.2852049796721 326.59068905688264 867.9910663803306 325.91551003182894Q863.7239349419914 325.2133238457732 859.8349037576821 322.29655045754123L859.8349037576821 322.29655045754123Q859.456803503652 321.91845020351116 858.8626459616048 321.5403499494811Q858.2684884195576 321.1352425344488 858.2684884195576 320.75714228041886L858.2684884195576 320.75714228041886Q858.2684884195576 320.1629847383716 858.8626459616048 319.8659059673479Q859.456803503652 319.59583435732645 859.8349037576821 319.3797770693093L859.8349037576821 319.3797770693093Q861.5903692228218 319.0016768152792 864.3991139670451 318.7045980442556Q867.2348658722705 318.40751927323197 869.9355819724852 318.81262668826423L869.9355819724852 318.81262668826423Q871.8800975646399 319.1907269422943 874.6078208258567 319.1907269422943Q877.3355440870736 319.1907269422943 880.144288831297 318.81262668826423Q882.9800407365225 318.40751927323197 885.3026565827071 317.5432901211633Q887.652279589894 316.6790609690945 888.8135875129864 314.92359550395497L888.8135875129864 314.92359550395497Q889.3807378940314 314.14038783489275 889.9748954360786 314.32943796190773ZM891.3252534861859 308.30684105842886L891.3252534861859 308.30684105842886L890.758103105141 309.2790988545062Q887.4362223018768 313.5462302928455 883.7632484055847 314.81556685994633Q880.0632673482905 316.08490342704727 875.9851860369663 315.8958533000323Q871.8800975646399 315.7068031730172 867.7209947703092 314.81556685994633Q863.5348848149763 313.95133770787766 859.456803503652 313.7622875808627L859.456803503652 313.7622875808627Q854.0013569812182 313.5462302928455 848.5459104587845 317.0571612231246Q843.1174710973529 320.56809215340377 839.2284399130436 329.3184123180996L839.2284399130436 329.3184123180996Q838.6342823709964 330.4797202411919 838.4452322439813 329.8045412161382Q838.2561821169662 329.1023550300823 838.4452322439813 328.53520464903727L838.4452322439813 328.53520464903727Q840.0116475821059 322.7016578725734 842.1452133012755 318.81262668826423Q844.2787790204452 314.92359550395497 846.7094235106384 312.49295101376174Q849.1400680008318 310.0623065235684 851.8677912620486 308.9009986004761Q854.5955145232655 307.7126835163816 857.5122879114974 307.33458326235154L857.5122879114974 307.33458326235154Q860.8071615537594 296.2616472514711 862.6436485019054 285.6478329776271Q864.5071426110536 275.0610258647854 862.940727272929 265.52749803102733L862.940727272929 265.52749803102733Q862.940727272929 264.744290361965 862.940727272929 264.744290361965L862.940727272929 264.744290361965Q863.3458346879612 264.55524023495 863.7239349419914 264.9333404889801Q864.1020351960215 265.33844790401224 864.1020351960215 265.52749803102733L864.1020351960215 265.52749803102733Q868.3961737953629 274.8719757377703 867.6129661263006 285.4587828506121Q866.8297584572383 296.04558996345395 863.7239349419914 307.7126835163816L863.7239349419914 307.7126835163816Q864.6961927380686 307.9287408043988 865.2903502801158 307.9287408043988Q865.857500661161 307.9287408043988 866.6407083302232 307.9287408043988L866.6407083302232 307.9287408043988Q867.6129661263006 302.85139453599504 868.4771952783693 297.1258764035398Q869.3684315914402 291.40035827108454 869.8545604894788 286.1339618756658Q870.3406893875175 280.89457264124917 870.1516392605024 276.60043404190776Q869.9355819724852 272.3333026035684 868.774274049393 270.1997368843988L868.774274049393 270.1997368843988Q868.2071236683479 268.4442714192593 868.774274049393 268.4442714192593L868.774274049393 268.4442714192593Q869.1793814644251 268.4442714192593 869.3684315914402 268.8223716732893Q869.5574817184552 269.2274790883215 869.9355819724852 269.6055793423516L869.9355819724852 269.6055793423516Q872.6633052337021 272.3333026035684 874.2297205718268 277.00554145693997Q875.7691287489491 281.6777803103115 876.3632862909964 286.91716954472804Q876.9574438330436 292.1565587791447 876.7413865450263 297.3149265305549Q876.5523364180114 302.47329428196497 875.580078621934 306.3623254662742L875.580078621934 306.3623254662742L874.7968709528717 309.46814898152115Q875.3910284949189 309.8732563965534 875.9851860369663 309.8732563965534Q876.5523364180114 309.8732563965534 877.1464939600586 310.0623065235684L877.1464939600586 310.0623065235684Q878.307801883151 304.2287597471046 879.1720310352197 298.3952129706407Q880.0632673482905 292.56166619417684 879.8742172212756 286.1339618756658L879.8742172212756 286.1339618756658Q879.8742172212756 284.78360382555843 880.0632673482905 284.78360382555843L880.0632673482905 284.78360382555843Q880.4413676023206 284.78360382555843 880.6304177293356 285.3507542066035Q880.8464750173529 285.9449117486507 881.0355251443679 286.3230120026808L881.0355251443679 286.3230120026808Q883.3581409905524 290.6171506020223 883.2771195075461 297.01784775953126Q883.1690908635375 303.4455520780423 882.1968330674603 310.62945690461356L882.1968330674603 310.62945690461356Q886.4639645057995 310.62945690461356 890.3529956901087 308.30684105842886L890.3529956901087 308.30684105842886Q891.3252534861859 307.7126835163816 891.3252534861859 308.30684105842886ZM851.0845835929864 321.5403499494811L851.0845835929864 321.5403499494811Q851.0845835929864 322.5126077455584 850.0042971529004 323.4848655416357Q848.9510178738167 324.457123337713 848.3568603317694 324.8352235917431L848.3568603317694 324.8352235917431Q847.3846025356921 325.6184312608053 846.1152659685912 326.6717105398891Q844.8729365624924 327.75199697997505 843.9006787664151 328.91330490306734L843.9006787664151 328.91330490306734Q842.9284209703378 330.4797202411919 842.037184657267 331.6410281642842Q841.1729555051983 332.8023360873766 840.578797963151 334.9359018065462L840.578797963151 334.9359018065462Q840.3897478361359 335.3410092215785 840.0926690651123 335.6380879926021Q839.7955902940887 335.9081596026235 839.6065401670736 335.71910947560843L839.6065401670736 335.71910947560843Q839.0393897860287 335.1519590945634 839.6065401670736 333.20744350240875L839.6065401670736 333.20744350240875Q840.3897478361359 330.2906701141768 841.1729555051983 328.4271760050286Q841.9561631742605 326.59068905688264 844.0897288934301 324.457123337713L844.0897288934301 324.457123337713Q844.8729365624924 323.6739156686507 846.0342444855847 322.89070799958847Q847.1955524086771 322.10750033052614 848.3568603317694 321.5403499494811Q849.5181682548617 320.94619240743384 850.3013759239241 320.94619240743384Q851.0845835929864 320.94619240743384 851.0845835929864 321.5403499494811ZM866.2626080761933 399.6990738896958L866.2626080761933 399.6990738896958Q867.2348658722705 399.3209736356657 867.0188085842534 399.8881240167108Q866.8297584572383 400.482281558758 866.4516582032082 400.6713316857731L866.4516582032082 400.6713316857731Q862.940727272929 401.8326396088654 859.0516960886199 400.29323143174304Q855.1626649043106 398.7268160936185 851.8677912620486 395.43194245135646Q848.5459104587845 392.11006164809237 846.2232946125997 387.7349015657444Q843.9006787664151 383.35974148339653 843.3065212243679 379.0926100450573L843.3065212243679 379.0926100450573Q842.3342634282906 369.93718246532933 843.1174710973529 361.40291958865066Q843.9006787664151 352.8416495509699 846.0342444855847 344.46942964030427L846.0342444855847 344.46942964030427L849.3291181278468 332.23518570633144Q848.1678102047543 332.23518570633144 847.006502281662 331.6410281642842L847.006502281662 331.6410281642842Q845.6291370705525 331.2629279102541 845.6291370705525 330.6687703682069L845.6291370705525 330.6687703682069Q845.6291370705525 330.2906701141768 847.006502281662 329.5074624451146L847.006502281662 329.5074624451146Q852.4349416430938 326.77973918389773 857.998416809536 327.1578394379278Q863.5348848149763 327.56294685295995 869.1793814644251 328.53520464903727L869.1793814644251 328.53520464903727Q872.6633052337021 329.1023550300823 876.2552576469878 329.39943380110594Q879.8742172212756 329.69651257212956 884.1413486596148 327.94104710699L884.1413486596148 327.94104710699Q884.5194489136449 327.56294685295995 884.9245563286771 327.75199697997505L884.9245563286771 327.75199697997505Q885.3026565827071 328.130097234005 884.735506201662 329.1023550300823L884.735506201662 329.1023550300823Q883.5471911175676 331.6410281642842 881.4136253983979 332.8023360873766Q879.2800596792282 333.9636440104689 876.9574438330436 334.55780155251614L876.9574438330436 334.55780155251614Q875.3910284949189 339.6081406599177 874.2297205718268 343.6052004882356Q873.0684126487344 347.5752531555512 872.2852049796721 350.30297641676816L872.2852049796721 350.30297641676816Q870.1516392605024 359.6474541235111 867.3158873552769 369.26200344027563Q864.5071426110536 378.9035599180422 863.5348848149763 385.49330720256626L863.5348848149763 385.49330720256626Q863.1297773999441 387.65388008273806 862.7516771459141 387.84293020975304L862.7516771459141 387.84293020975304Q862.373576891884 388.031980336768 861.9684694768517 387.0597225406908Q861.5903692228218 386.0874647446135 861.4013190958066 385.49330720256626L861.4013190958066 385.49330720256626Q860.6181114267443 379.87581771411953 861.1042403247831 373.745192166632Q861.5903692228218 367.6145666191446 862.940727272929 361.1868623006335Q864.3180924840386 354.78616514312455 866.046550788176 348.2774393416071Q867.8020162533156 341.7417063790874 869.7465318454703 335.1519590945634L869.7465318454703 335.1519590945634Q868.774274049393 335.1519590945634 867.8020162533156 335.1519590945634Q866.8297584572383 335.1519590945634 865.857500661161 334.9359018065462L865.857500661161 334.9359018065462Q864.3180924840386 339.04099027887264 862.6436485019054 343.01104294618835Q860.9962116807744 347.00810277450614 859.456803503652 350.49202654378314L859.456803503652 350.49202654378314Q859.2407462156349 350.8971339588154 858.5655671905812 352.3555206529313Q857.8903881655275 353.81390734704723 857.5122879114974 353.81390734704723L857.5122879114974 353.81390734704723Q856.7290802424351 353.62485722003225 856.9181303694503 351.95041323789906Q857.1071804964653 350.30297641676816 857.1071804964653 349.735826035723L857.1071804964653 349.735826035723Q857.5122879114974 346.81905264749105 858.3765170635661 342.9300214631819Q859.2407462156349 339.04099027887264 860.0239538846971 334.55780155251614L860.0239538846971 334.55780155251614Q859.0516960886199 334.36875142550116 857.8903881655275 334.2607227814925Q856.7290802424351 334.17970129848607 855.5677723193428 333.7745938834539L855.5677723193428 333.7745938834539Q854.3794572352483 337.66362506776306 853.3261779561645 341.36360612505734Q852.2458915160787 345.0635871823515 851.2736337200014 348.7635682396457L851.2736337200014 348.7635682396457Q849.734225542879 355.5693728121869 848.9510178738167 363.23940653679676Q848.1678102047543 370.90944026140664 848.9510178738167 379.0926100450573L848.9510178738167 379.0926100450573Q849.3291181278468 382.7925911023515 850.9765549489778 386.68162228666074Q852.6509989311108 390.5706534709699 854.9736147772956 393.6764769862168Q857.2962306234803 396.78230050146385 860.3210326557207 398.5377659666034Q863.3458346879612 400.29323143174304 866.2626080761933 399.6990738896958ZM867.9910663803306 395.43194245135646L867.9910663803306 395.43194245135646Q868.9633241764079 394.64873478229424 869.1793814644251 395.32391380734794Q869.3684315914402 395.99909283240163 868.3961737953629 396.59325037444876L868.3961737953629 396.59325037444876Q867.6129661263006 397.1604007554939 866.3436295591997 397.45747952651755Q865.0742929920988 397.75455829754117 863.5348848149763 397.5655081705261Q861.9684694768517 397.3764580435111 860.2130040117122 396.4042002474338Q858.4845457075747 395.43194245135646 856.9181303694503 393.27136957118466L856.9181303694503 393.27136957118466Q855.5677723193428 391.5429112670472 854.6765360062719 388.2210304637831Q853.8123068542033 384.9261568215211 853.407199439171 381.71230466226564Q853.029099185141 378.49845250301007 853.218149312156 376.17583665682537Q853.407199439171 373.8262136496385 854.1904071082332 373.8262136496385L854.1904071082332 373.8262136496385Q855.1626649043106 373.8262136496385 855.6487938023492 376.55393691085544Q856.1349227003878 379.2816601720723 856.5400301154201 381.03712563721194L856.5400301154201 381.03712563721194Q857.2962306234803 384.14294915245887 858.6735958345897 387.4378227947208Q860.0239538846971 390.759703597985 861.5903692228218 392.7042191901396L861.5903692228218 392.7042191901396Q863.5348848149763 395.2158851633393 865.0742929920988 395.7020140613779Q866.6407083302232 396.1881429594166 867.9910663803306 395.43194245135646ZM959.0051989575676 332.23518570633144L959.0051989575676 332.23518570633144Q957.4387836194429 340.01324807494996 953.7658097231509 347.79131044356836Q950.0658286658567 355.5693728121869 946.7439478625926 362.375177384728L946.7439478625926 362.375177384728Q946.5548977355775 362.75327763875805 945.8797187105239 363.72553543483536Q945.2045396854702 364.6977932309127 944.7994322704379 364.6977932309127L944.7994322704379 364.6977932309127Q944.2322818893929 364.5087431038977 944.2322818893929 363.42845666381174Q944.2322818893929 362.375177384728 944.2322818893929 361.9700699696958L944.2322818893929 361.9700699696958Q944.4213320164079 360.2146045045562 944.9074609144466 357.78396001436295Q945.3935898124852 355.3533155241697 945.7716900665152 352.7336209069614Q946.1767974815475 350.11392628975307 946.6629263795861 347.68328179955984Q947.1490552776248 345.2526373093666 947.7162056586699 343.308121717212L947.7162056586699 343.308121717212Q949.4716711238094 336.69136727168575 950.6329790469018 331.9381069353078Q951.8212941309963 327.1578394379278 952.3884445120412 323.26880825361854Q952.9826020540887 319.3797770693093 953.063623537095 315.8958533000323Q953.1716521811037 312.3849223697531 952.5774946390565 308.30684105842886L952.5774946390565 308.30684105842886Q952.3884445120412 306.7404257203043 952.7935519270735 306.3623254662742L952.7935519270735 306.3623254662742Q953.1716521811037 306.17327533925913 953.7658097231509 306.7404257203043Q954.3329601041961 307.33458326235154 954.7380675192281 307.9287408043988L954.7380675192281 307.9287408043988Q958.0329411614902 313.16813003881543 959.1942490845826 319.4878057133179Q960.3555570076749 325.8074813878204 959.0051989575676 332.23518570633144ZM962.8942301418767 318.0294190192019L963.6774378109391 319.1907269422943Q966.1891037841386 322.89070799958847 966.1891037841386 328.91330490306734Q966.1891037841386 334.9359018065462 965.0277958610465 341.2555774810487Q963.866487937954 347.5752531555512 962.1110224728145 353.4087999320151Q960.3555570076749 359.24234670847886 959.5993564996148 362.75327763875805L959.5993564996148 362.75327763875805Q958.0329411614902 369.55908221129926 955.3052179002733 376.36488678384035Q952.5774946390565 383.17069135638155 950.6329790469018 388.4100805907981L950.6329790469018 388.4100805907981Q950.4439289198867 389.00423813284533 950.0658286658567 389.679417157899Q949.6607212508244 390.3545961829527 949.2826209967944 390.3545961829527L949.2826209967944 390.3545961829527Q948.9045207427644 390.3545961829527 948.9045207427644 389.5983956748926Q948.9045207427644 388.81518800583035 948.9045207427644 388.2210304637831L948.9045207427644 388.2210304637831Q948.3103632007171 377.52619470693276 951.2271365889491 367.317487848121Q954.1439099771809 357.10878098930925 957.4387836194429 346.6029953594739L957.4387836194429 346.6029953594739Q959.3832992115975 340.20229820196494 961.1387646767372 333.4775151124303Q962.8942301418767 326.77973918389773 962.7051800148618 318.81262668826423L962.7051800148618 318.81262668826423Q962.7051800148618 318.0294190192019 962.8942301418767 318.0294190192019L962.8942301418767 318.0294190192019ZM945.3935898124852 315.8958533000323L945.3935898124852 315.8958533000323Q933.5374461325424 320.75714228041886 925.2732548658854 329.8045412161382Q917.0090635992282 338.8249329908555 912.5258748728717 350.11392628975307L912.5258748728717 350.11392628975307Q910.5813592807172 355.1642653971546 909.6091014846398 359.1613252254724Q908.6368436885625 363.1313778927881 908.0696933075175 367.8036167461596L908.0696933075175 367.8036167461596Q907.8536360195003 368.7758745422369 908.6368436885625 369.74813233831424Q909.4200513576247 370.72039013439155 910.2032590266871 369.74813233831424L910.2032590266871 369.74813233831424Q913.6871827959641 365.481000899975 919.1426293183979 358.8642464544488Q924.5980758408317 352.2474920089227 930.0265152022633 344.87453705533653Q935.481961724697 337.4745749407481 939.857121807045 329.88556269914466Q944.2322818893929 322.29655045754123 945.3935898124852 315.8958533000323ZM932.3761382094501 381.82033330627416L932.3761382094501 381.82033330627416Q929.4593648212182 385.8984146175984 926.7316415600013 389.3823383868754Q924.0039182987845 392.8932693171546 920.7090446565225 395.5129639343629Q917.3871638532584 398.13265855157124 913.309082541934 399.6990738896958Q909.2310012306098 401.26548922782035 903.964604835191 401.45453935483533L903.964604835191 401.45453935483533Q895.2142846704952 401.8326396088654 890.6500744611324 396.97135062847883Q886.0858642517694 392.11006164809237 884.3303987866299 385.1152069485362Q882.5749333214902 378.12035224898 883.0610622195289 370.6393686513851Q883.5471911175676 363.1313778927881 885.1136064556921 358.27008891240155L885.1136064556921 358.27008891240155Q887.2471721748617 351.46428433986046 890.2719742071023 345.36066595337513Q893.2697690783406 339.2300404058876 896.6726713646112 334.2607227814925Q900.0755736508819 329.3184123180996 903.6945332251696 325.6994527438118Q907.2864856384551 322.10750033052614 910.7704094077321 320.1629847383716L910.7704094077321 320.1629847383716Q910.9864666957493 320.1629847383716 911.661645720803 319.78488448434155Q912.3368247458567 319.3797770693093 912.3368247458567 319.9739346113565L912.3368247458567 319.9739346113565Q912.5258748728717 319.9739346113565 912.1477746188417 320.56809215340377Q911.7426672038094 321.1352425344488 911.3645669497794 321.5403499494811L911.3645669497794 321.5403499494811Q901.2638887349764 332.01912841831427 895.3223133145038 345.2526373093666Q889.3807378940314 358.48614620041883 888.6245373859713 372.4758555995312L888.6245373859713 372.4758555995312Q888.4084800979541 375.9867865298103 888.8946089959927 380.0648678411346Q889.3807378940314 384.14294915245887 890.8391245881473 387.7349015657444Q892.2975112822634 391.32685397903003 895.0252345434802 393.75749846922326Q897.7529578046971 396.1881429594166 902.4251966580686 396.1881429594166L902.4251966580686 396.1881429594166Q906.1251777153628 396.1881429594166 909.2310012306098 394.94581355331786Q912.3368247458567 393.6764769862168 915.0645480070735 391.62393275005365Q917.7922712682906 389.5983956748926 920.0068584704667 387.16775118469934Q922.2484528336448 384.7371066945061 924.0039182987845 382.5765338143343L924.0039182987845 382.5765338143343Q927.8929494830937 377.71524483394774 931.1878231253556 372.4758555995312L931.1878231253556 372.4758555995312Q931.1878231253556 368.58682441522194 931.6739520233942 364.8868433579278Q932.160080921433 361.1868623006335 933.1323387175103 357.5138884043414L933.1323387175103 357.5138884043414Q933.7264962595575 354.78616514312455 934.2126251575961 353.13872832199354Q934.6987540556348 351.46428433986046 935.1848829536735 350.0058976457444Q935.6710118517121 348.5475109516285 936.1571407497507 346.9000741304975Q936.6432696477895 345.2526373093666 937.6155274438667 342.52491404814964L937.6155274438667 342.52491404814964Q934.5097039286198 347.98036057058346 931.4849018963793 352.7336209069614Q928.4871070251409 357.5138884043414 925.0842047388704 361.8890484866894Q921.6813024525998 366.26420856903724 918.062342878312 370.42331136336793Q914.4703904650263 374.6094213187008 910.2032590266871 378.9035599180422L910.2032590266871 378.9035599180422Q906.881378223423 382.19843356030424 904.7478125042534 381.03712563721194Q902.6142467850838 379.87581771411953 902.2361465310536 375.5816791147781L902.2361465310536 375.5816791147781Q901.8310391160213 368.964924669252 902.9113255561073 362.75327763875805Q903.964604835191 356.5416306082642 906.6923280964079 349.735826035723L906.6923280964079 349.735826035723Q909.2310012306098 343.49717184422695 913.0120037709104 337.66362506776306Q916.8200134722132 331.8300782912993 921.7623239356062 327.07681795492135Q926.7316415600013 322.29655045754123 932.7542384634802 318.8936481712707Q938.7768353669591 315.490745885 945.5826399395003 314.32943796190773L945.5826399395003 314.32943796190773Q945.9877473545324 312.1958722427381 946.2578189645538 310.62945690461356Q946.5548977355775 309.0900487274911 946.7439478625926 307.5236333893665L946.7439478625926 307.5236333893665Q947.1490552776248 305.3900676701969 947.1490552776248 305.3900676701969L947.1490552776248 305.3900676701969Q947.5271555316549 305.20101754318193 948.0132844296935 305.768167924227Q948.4994133277321 306.3623254662742 948.9045207427644 307.33458326235154L948.9045207427644 307.33458326235154Q951.2271365889491 313.7622875808627 950.4439289198867 320.1629847383716Q949.6607212508244 326.59068905688264 947.6351841756634 333.20744350240875Q945.5826399395003 339.7971907869328 942.8549166782833 346.7110240034825Q940.1542005780686 353.62485722003225 938.3987351129291 360.61971191958844L938.3987351129291 360.61971191958844Q936.0491121057422 370.53134000737657 937.1293985458282 381.1181471202183Q938.2096849859139 391.7319613940623 945.3935898124852 400.29323143174304L945.3935898124852 400.29323143174304Q945.9877473545324 401.0494319398032 945.9877473545324 401.0494319398032L945.9877473545324 401.0494319398032Q945.7716900665152 401.26548922782035 944.7994322704379 400.6713316857731L944.7994322704379 400.6713316857731Q939.1819427819913 397.1604007554939 936.3461908767657 392.2180902921009Q933.5374461325424 387.2487726677058 932.3761382094501 381.82033330627416ZM939.1819427819913 312.97907991180034L939.1819427819913 312.97907991180034Q939.5600430360213 313.3571801658304 939.0739141379827 313.5462302928455Q938.5877852399441 313.7622875808627 937.0213699018194 314.14038783489275L937.0213699018194 314.14038783489275Q934.5097039286198 314.92359550395497 930.9177515153342 317.0571612231246Q927.2987919410465 319.1907269422943 923.3287392737308 322.5126077455584Q919.331679445413 325.8074813878204 915.4426482611037 330.1826414701683Q911.5536170767945 334.55780155251614 908.6368436885625 339.6081406599177L908.6368436885625 339.6081406599177Q905.7200703003306 344.87453705533653 903.6945332251696 349.9248761627381Q901.6419889890063 354.97521527013964 900.3726524219054 359.1613252254724Q899.1033158548045 363.3474351808053 898.5361654737594 366.3452300520437Q897.942007931712 369.37003208428416 897.942007931712 370.53134000737657L897.942007931712 370.53134000737657Q897.942007931712 373.4481133956084 897.942007931712 376.66196555486397Q897.942007931712 379.87581771411953 898.7252156007745 382.3874836873192Q899.5084232698367 384.9261568215211 901.4529388619914 386.2765148716285Q903.397454454146 387.65388008273806 907.2864856384551 387.0597225406908L907.2864856384551 387.0597225406908Q907.4755357654702 387.0597225406908 908.2587434345324 386.7626437696671Q909.0419511035948 386.46556499864346 909.7981516116548 386.195493388622Q910.5813592807172 385.8984146175984 911.2565383057708 385.7093644905834Q911.9587244918266 385.49330720256626 912.1477746188417 385.49330720256626L912.1477746188417 385.49330720256626Q912.3368247458567 385.8984146175984 911.8506958478181 386.46556499864346Q911.3645669497794 387.0597225406908 910.5813592807172 387.7349015657444Q909.7981516116548 388.4100805907981 909.1229725866011 389.00423813284533Q908.4477935615475 389.5983956748926 908.2587434345324 389.78744580190767L908.2587434345324 389.78744580190767Q903.397454454146 392.7042191901396 900.0755736508819 391.5429112670472Q896.7807000086199 390.3545961829527 894.9442130604738 387.16775118469934Q893.0807189513256 383.9538990254438 892.4055399262719 379.5787389430959Q891.7303609012182 375.20357886074805 891.9194110282332 371.69264793046887L891.9194110282332 371.69264793046887Q892.2975112822634 364.8868433579278 894.052976747403 358.1890674293951Q895.8084422125424 351.46428433986046 898.5361654737594 344.65847976731936L898.5361654737594 344.65847976731936Q900.6697311929291 339.4190905329027 904.9368626312684 333.88262252746244Q909.2310012306098 328.3461545220223 914.5784191090349 323.6739156686507Q919.9258369874602 319.0016768152792 925.759383763924 315.97687478303874Q931.5929305403878 312.97907991180034 937.0213699018194 312.79002978478536L937.0213699018194 312.79002978478536Q938.965885493974 312.79002978478536 939.1819427819913 312.97907991180034ZM950.6329790469018 400.29323143174304L950.6329790469018 400.29323143174304Q951.038086461934 400.8603818127881 950.849036334919 401.0494319398032L950.849036334919 401.0494319398032Q950.2548787928718 401.0494319398032 949.2826209967944 400.6713316857731L949.2826209967944 400.6713316857731Q948.6884634547472 400.29323143174304 946.1767974815475 398.3487158395884Q943.6381243473456 396.4042002474338 942.4768164242533 392.11006164809237L942.4768164242533 392.11006164809237Q942.0987161702232 390.5706534709699 941.8016373991996 388.14000898077666Q941.5045586281759 385.7093644905834 941.5045586281759 383.5487916104116Q941.5045586281759 381.4152258912419 941.8016373991996 379.87581771411953Q942.0987161702232 378.309402375995 942.6658665512683 378.309402375995L942.6658665512683 378.309402375995Q943.2600240933156 378.309402375995 943.9352031183693 380.6320182221797Q944.610382143423 382.98164122936646 944.7994322704379 383.5487916104116L944.7994322704379 383.5487916104116Q945.3935898124852 386.2765148716285 945.8797187105239 388.32905910779164Q946.3658476085625 390.3545961829527 946.9600051506097 392.11006164809237L946.9600051506097 392.11006164809237Q947.7162056586699 394.243627367262 948.9855422257708 396.97135062847883Q950.2548787928718 399.6990738896958 950.6329790469018 400.29323143174304Z " fill="&#9;#f7f7f7" transform="matrix(0.9056197953393597,0,0,0.9056197953393597,0,3.938478941221547)"/></g></svg>